<?xml version="1.0" standalone="no"?>
<!DOCTYPE svg PUBLIC "-//W3C//DTD SVG 20010904//EN"
 "http://www.w3.org/TR/2001/REC-SVG-20010904/DTD/svg10.dtd">
<svg version="1.0" xmlns="http://www.w3.org/2000/svg"
 width="498.000000pt" height="498.000000pt" viewBox="0 0 498.000000 498.000000"
 preserveAspectRatio="xMidYMid meet">
<metadata>
Created by potrace 1.11, written by Peter Selinger 2001-2013
</metadata>
<g transform="translate(0.000000,498.000000) scale(0.100000,-0.100000)"
fill="#000000" stroke="none">
<path d="M2278 4725 c-2 -2 -28 -6 -58 -10 -82 -9 -123 -15 -150 -21 -14 -2
-50 -9 -80 -15 -30 -6 -61 -16 -68 -22 -8 -6 -28 -12 -45 -13 -18 -1 -32 -2
-32 -3 0 -2 -10 -4 -23 -7 -72 -13 -432 -175 -432 -194 0 -6 -9 -10 -19 -10
-11 0 -26 -7 -35 -15 -8 -8 -19 -15 -25 -15 -6 0 -11 -4 -11 -10 0 -5 -5 -10
-11 -10 -6 0 -39 -20 -73 -45 -95 -70 -118 -88 -153 -121 -18 -18 -33 -29 -33
-26 0 21 -234 -240 -321 -358 -33 -45 -159 -248 -159 -256 0 -4 -18 -42 -39
-84 -22 -43 -37 -80 -34 -84 4 -3 0 -6 -7 -6 -7 0 -10 -3 -7 -7 4 -3 2 -11 -3
-18 -8 -10 -67 -175 -74 -210 -2 -5 -8 -28 -14 -50 -13 -47 -51 -234 -57 -284
-5 -41 -18 -230 -17 -251 0 -8 3 -71 6 -140 6 -121 8 -141 20 -206 3 -17 8
-47 10 -67 3 -20 10 -55 17 -79 6 -24 13 -54 15 -68 5 -30 43 -148 55 -172 5
-10 9 -23 9 -29 0 -6 6 -25 14 -42 7 -18 21 -52 32 -77 10 -25 24 -53 32 -63
8 -9 12 -17 8 -17 -4 0 -2 -9 4 -20 11 -21 12 -20 46 10 24 20 42 29 57 25 12
-2 47 -7 77 -10 30 -3 66 -8 80 -10 14 -3 43 -7 65 -11 22 -3 57 -15 79 -26
l38 -20 -75 -76 c-41 -42 -87 -90 -100 -107 -14 -16 -27 -28 -29 -25 -2 3 -21
34 -43 70 -21 36 -41 67 -44 70 -3 3 -19 30 -35 62 l-29 56 -29 -21 c-34 -25
-34 -35 -7 -84 12 -21 33 -58 47 -83 13 -25 35 -58 47 -75 41 -55 48 -75 34
-92 -16 -18 -28 -40 -67 -115 l-29 -57 31 24 c17 13 56 37 88 54 l56 31 26
-31 c14 -17 26 -27 26 -22 1 4 8 -4 16 -19 8 -16 20 -28 26 -28 6 0 9 -3 6 -6
-8 -7 36 -54 51 -54 6 0 11 -6 11 -13 0 -15 45 -57 60 -57 6 0 10 -6 10 -13 0
-19 34 -37 51 -26 23 15 30 10 18 -12 -9 -17 -7 -23 10 -35 11 -8 26 -20 33
-27 7 -6 37 -29 67 -49 42 -29 56 -34 66 -25 7 7 10 16 7 21 -3 5 -1 6 4 3 6
-3 15 -2 22 2 15 9 -6 36 -58 71 -19 13 -37 27 -40 30 -3 3 -24 18 -47 34 -24
16 -43 35 -43 42 0 8 -7 14 -15 14 -8 0 -15 5 -15 10 0 6 -6 10 -14 10 -8 0
-17 8 -21 18 -3 11 -17 24 -30 30 -14 6 -25 16 -25 22 0 6 -20 30 -43 53 -24
23 -52 54 -61 69 -18 27 -17 28 0 34 11 4 39 15 63 25 24 11 57 22 73 24 15 3
56 12 90 19 35 8 79 14 98 14 72 0 260 11 268 16 13 8 90 -31 104 -53 7 -12
18 -21 25 -21 7 0 13 -4 13 -8 0 -5 10 -13 22 -19 16 -7 26 -6 40 6 17 14 15
17 -27 43 -25 15 -52 28 -61 28 -8 0 -12 5 -9 10 3 6 -4 10 -18 10 l-24 0 -2
134 -2 135 38 10 c21 6 49 12 63 15 14 2 25 5 25 6 0 1 13 4 65 14 14 2 25 5
25 6 0 1 11 3 25 5 14 1 43 5 65 9 22 3 65 8 95 12 30 3 71 7 90 10 103 12
244 17 500 17 364 -1 411 -4 720 -48 56 -8 99 -16 170 -34 l75 -18 3 -80 3
-80 -39 -34 c-79 -69 -186 -143 -276 -192 -57 -31 -225 -100 -271 -112 -16 -5
-34 -9 -40 -11 -37 -10 -171 -36 -198 -39 -18 -2 -32 -4 -32 -5 0 -1 -22 -3
-50 -5 -27 -2 -52 -4 -55 -5 -3 -1 -18 -2 -35 -1 -27 1 -44 1 -80 -1 -5 0 -18
3 -27 7 -11 4 -18 3 -18 -5 0 -6 -4 -9 -9 -6 -5 3 -26 8 -47 11 -22 3 -50 7
-64 10 -13 2 -40 7 -60 10 -19 3 -62 12 -95 20 -33 9 -71 18 -85 21 -13 3 -39
12 -57 20 -18 8 -48 21 -67 29 -18 8 -42 16 -52 18 -11 2 -39 16 -64 32 -25
15 -47 27 -49 26 -2 -2 -7 2 -10 8 -10 16 -35 -5 -28 -23 4 -9 15 -20 24 -24
10 -4 38 -18 63 -32 25 -13 51 -25 59 -26 8 -2 17 -6 20 -11 10 -13 71 -32 87
-26 8 3 14 0 14 -6 0 -6 7 -8 15 -5 9 4 15 0 15 -9 0 -10 6 -13 21 -10 12 3
24 2 28 -4 11 -17 177 -53 261 -56 25 -1 50 -5 55 -8 9 -5 230 -5 230 0 0 1
16 4 35 5 69 7 136 17 185 28 28 7 53 11 58 10 4 -1 7 3 7 10 0 6 3 9 6 5 3
-3 20 3 36 13 22 13 37 16 54 10 16 -6 26 -5 34 5 6 8 17 12 24 9 7 -3 19 2
26 11 7 8 17 15 23 15 21 0 123 55 165 88 23 18 58 38 77 43 19 6 36 18 40 29
4 11 11 20 16 20 5 0 11 0 14 0 2 0 21 16 42 36 64 59 80 63 74 17 -1 -7 6
-14 16 -14 10 -1 29 -3 43 -5 14 -2 70 -5 125 -9 139 -7 203 -13 250 -21 22
-5 42 -8 45 -9 3 0 11 -4 18 -8 6 -5 16 -6 21 -2 5 3 12 1 16 -5 4 -6 10 -8
14 -5 5 2 17 -2 27 -10 19 -13 19 -14 -1 -33 -11 -11 -42 -46 -70 -78 -97
-111 -196 -199 -211 -186 -4 4 -2 -1 5 -10 9 -13 10 -18 2 -18 -14 0 -69 -37
-92 -63 -9 -9 -20 -17 -25 -17 -5 0 -31 -18 -59 -40 -27 -22 -56 -40 -62 -40
-7 0 -13 -5 -13 -11 0 -5 -4 -7 -10 -4 -5 3 -10 2 -10 -2 0 -5 -12 -14 -27
-21 -16 -6 -46 -22 -68 -35 -22 -12 -47 -21 -57 -19 -9 2 -19 -5 -22 -16 -4
-10 -12 -19 -19 -19 -7 0 -39 -12 -71 -27 -42 -20 -61 -25 -66 -16 -5 8 -11 8
-21 -3 -8 -7 -19 -12 -26 -10 -6 2 -20 -5 -30 -16 -16 -17 -36 -25 -118 -44
-5 -1 -16 -6 -22 -10 -7 -5 -13 -6 -13 -4 0 2 -26 -2 -57 -10 -74 -18 -86 -20
-158 -28 -33 -4 -76 -9 -95 -12 -151 -20 -492 0 -620 37 -19 5 -36 8 -38 5 -3
-3 -11 0 -19 6 -7 6 -13 9 -13 6 0 -3 -15 -1 -32 4 -18 6 -40 12 -48 14 -8 1
-44 13 -80 25 -36 13 -71 23 -77 23 -7 0 -13 4 -13 8 0 11 -68 32 -80 24 -5
-3 -10 0 -10 7 0 7 -36 28 -80 47 -44 19 -80 37 -80 41 0 6 -24 17 -51 24 -3
0 -14 9 -24 19 -20 21 -62 16 -82 -10 -13 -17 -9 -24 42 -60 41 -29 228 -124
233 -118 2 2 10 -2 17 -9 8 -7 55 -28 107 -45 51 -18 102 -37 113 -42 34 -14
128 -40 170 -46 22 -3 49 -9 60 -13 11 -4 30 -6 43 -4 12 2 22 -1 22 -7 0 -5
4 -8 9 -5 5 3 33 1 62 -5 59 -12 477 -20 484 -9 2 3 28 7 56 9 29 1 58 5 63 9
6 4 18 7 26 8 40 1 109 17 105 24 -3 4 12 8 33 7 44 0 149 26 165 42 6 6 21
11 34 11 12 0 48 11 79 25 31 14 62 25 68 25 6 0 22 9 36 20 14 11 32 20 41
20 9 0 27 13 42 29 17 20 32 28 45 24 12 -3 25 3 33 15 8 11 29 23 47 27 20 4
48 23 69 46 19 21 39 36 44 33 8 -4 77 48 186 141 45 39 213 209 213 217 0 11
85 103 98 106 15 3 163 -71 220 -110 23 -16 42 -26 42 -23 0 22 -113 207 -150
248 -17 18 -31 71 -14 54 8 -8 45 27 48 44 5 31 18 59 26 59 13 0 68 82 75
112 6 24 14 27 113 31 18 1 16 3 -33 34 -48 30 -54 43 -30 63 8 7 15 20 15 30
0 10 7 23 15 30 17 14 20 37 5 42 -6 2 -2 13 9 25 26 27 43 97 28 112 -8 8 -8
11 0 11 20 0 42 60 49 129 4 36 10 71 15 77 5 5 11 41 13 80 3 38 8 86 11 107
4 23 2 43 -5 52 -7 8 -7 15 -1 19 5 4 9 31 8 62 -2 31 0 57 4 59 3 2 4 28 2
57 -7 97 -12 163 -14 168 -1 3 -1 8 -1 11 1 4 -3 33 -8 65 -5 33 -11 73 -13
89 -2 17 -7 36 -11 43 -4 7 -5 12 -1 12 3 0 -1 13 -9 29 -9 16 -13 31 -10 34
3 3 0 25 -7 48 -7 24 -14 50 -15 57 -1 8 -10 22 -19 32 -9 10 -14 24 -10 30 4
7 -2 33 -13 59 -11 25 -33 78 -48 116 -15 39 -32 76 -38 84 -6 7 -11 20 -13
29 -1 9 -7 18 -13 20 -5 2 -8 8 -4 13 3 5 1 9 -4 9 -6 0 -12 10 -16 23 -3 12
-21 46 -41 75 -19 30 -35 56 -35 59 0 3 -9 14 -21 24 -11 9 -20 21 -20 26 1 4
-5 8 -11 8 -8 0 -12 10 -10 23 5 31 -18 27 -47 -10 -23 -28 -23 -32 -8 -43 9
-7 17 -15 17 -19 0 -4 14 -27 30 -52 17 -24 29 -44 26 -44 -3 0 10 -25 29 -55
19 -30 35 -59 35 -65 0 -5 5 -10 10 -10 6 0 10 -9 10 -20 0 -11 7 -23 15 -26
8 -4 13 -10 10 -14 -3 -4 2 -20 10 -36 12 -25 34 -77 40 -94 1 -3 4 -12 8 -20
3 -8 13 -36 23 -62 9 -27 23 -48 30 -48 15 0 19 -36 5 -42 -5 -2 -3 -21 5 -43
8 -22 16 -53 18 -70 3 -16 9 -45 15 -62 5 -18 7 -33 4 -33 -4 0 -23 16 -43 36
-43 43 -97 64 -166 64 -196 0 -305 -172 -221 -350 44 -94 44 -94 123 -74 44
11 69 14 71 7 8 -22 32 -48 39 -40 6 6 -12 104 -32 180 -9 30 -23 19 -26 -20
-3 -42 -22 -55 -90 -67 -32 -6 -39 -3 -54 18 -66 103 -13 212 124 255 125 38
225 13 258 -65 29 -69 13 -117 -52 -164 -63 -45 -59 -64 9 -43 71 21 99 23 93
8 -2 -7 -2 -16 1 -19 5 -5 4 -196 -2 -306 -2 -30 -11 -95 -20 -145 -9 -49 -18
-101 -20 -115 -2 -14 -4 -26 -6 -27 -1 -2 -2 -6 -3 -10 -2 -5 -8 -28 -15 -53
-7 -25 -14 -52 -16 -60 -2 -8 -8 -28 -15 -45 -6 -16 -12 -32 -12 -35 -1 -7 -3
-14 -29 -83 -22 -62 -21 -62 -89 -34 -31 12 -32 13 -100 32 -30 9 -69 18 -85
20 -17 2 -63 11 -103 20 -40 8 -88 15 -106 15 -30 0 -34 3 -34 28 0 15 7 35
15 44 8 9 12 22 8 27 -3 6 -2 11 4 11 9 0 29 53 38 104 2 11 9 26 15 34 14 16
18 31 22 86 2 21 10 42 17 47 12 7 12 9 0 9 -11 0 -10 5 3 24 12 18 12 26 3
29 -9 4 -9 8 2 15 8 6 11 17 8 26 -4 9 -2 28 3 42 10 25 23 194 24 300 0 29
-5 59 -13 68 -8 9 -15 35 -16 59 -2 23 -6 53 -9 67 -3 14 -8 39 -10 55 -3 17
-9 41 -14 55 -5 14 -10 29 -11 34 -1 5 40 28 92 51 52 23 122 56 155 73 34 18
62 29 62 26 0 -3 10 2 22 10 32 23 80 20 96 -4 13 -22 32 -27 32 -9 0 6 -16
46 -36 90 -36 76 -62 96 -50 38 8 -43 -23 -70 -149 -128 -60 -27 -111 -48
-113 -46 -4 3 62 130 137 265 63 113 62 110 34 174 -15 31 -31 55 -37 53 -6
-3 -10 -11 -8 -18 2 -7 1 -28 -3 -46 -5 -29 -15 -36 -118 -87 -199 -96 -214
-100 -244 -63 -10 13 -22 24 -27 25 -6 1 -11 8 -12 15 -1 8 -5 24 -8 35 -6 18
13 35 146 124 84 56 158 103 165 104 6 1 19 -7 29 -17 16 -18 49 -27 42 -11
-16 37 -112 171 -119 166 -5 -3 -6 -22 -3 -42 l6 -37 -155 -102 c-84 -57 -158
-103 -164 -103 -5 0 -18 9 -28 20 -10 12 -25 18 -32 16 -12 -5 -113 89 -113
105 0 5 -4 9 -8 9 -5 0 -19 9 -32 20 -27 23 -34 24 -48 7 -13 -15 46 -76 67
-69 8 3 11 0 8 -5 -4 -6 23 -41 58 -79 36 -37 65 -72 65 -77 0 -5 23 -38 52
-73 28 -36 53 -74 55 -86 2 -12 7 -25 11 -28 5 -3 12 -14 16 -25 5 -13 10 -15
13 -7 7 17 30 15 37 -4 8 -22 8 -24 -8 -24 -11 0 -15 -26 -6 -37 2 -2 3 -6 5
-10 7 -26 18 -42 26 -37 5 3 8 -3 7 -13 -3 -29 14 -83 25 -83 6 0 7 -3 4 -7
-4 -3 -2 -12 4 -19 5 -6 12 -33 16 -58 l5 -47 -36 25 c-21 14 -53 30 -72 36
-24 8 -40 23 -54 49 -25 49 -39 60 -83 63 -30 2 -44 10 -68 40 -17 20 -38 45
-47 55 -21 22 -88 58 -124 67 -16 3 -27 10 -26 14 6 25 -16 114 -30 121 -10 5
-66 14 -127 21 -60 7 -123 14 -140 16 -27 3 -83 8 -220 18 -89 7 -199 16 -250
21 -84 8 -207 17 -270 20 -33 2 -85 7 -115 11 -30 4 -58 7 -61 6 -3 0 -147 -4
-320 -7 -173 -3 -386 -8 -473 -10 -157 -5 -159 -5 -142 14 10 11 15 25 11 30
-3 6 -2 11 3 11 5 0 60 50 122 110 63 61 119 110 125 110 7 0 25 13 41 30 16
16 34 30 39 30 6 0 16 9 23 21 7 11 21 19 30 17 9 -1 32 11 51 27 18 17 38 29
44 27 15 -4 87 29 87 40 0 5 4 7 9 4 5 -3 14 0 20 8 13 15 58 31 79 27 6 -1
12 3 12 9 0 7 6 8 18 1 12 -6 23 -5 37 5 10 8 27 12 36 9 10 -3 20 -1 24 5 3
5 19 10 34 10 15 0 31 3 35 7 3 4 23 8 44 9 20 1 37 3 37 4 0 16 340 19 438 3
45 -7 104 -15 130 -19 26 -4 50 -11 53 -15 3 -5 13 -5 23 0 13 7 22 5 35 -11
13 -15 21 -17 29 -9 19 19 39 13 32 -9 -5 -17 -2 -20 22 -20 31 0 83 -20 83
-32 0 -5 7 -8 16 -8 9 0 30 -7 47 -16 58 -31 67 -34 82 -34 8 0 12 -6 9 -13
-3 -9 10 -20 34 -31 21 -10 51 -28 67 -42 15 -13 31 -24 34 -24 3 0 19 -11 35
-25 27 -23 30 -24 42 -7 11 14 10 19 -4 30 -9 7 -27 22 -40 32 -12 11 -26 20
-30 20 -4 0 -25 16 -47 36 -34 30 -36 34 -15 28 37 -11 101 -7 142 10 141 59
197 277 100 389 -17 19 -10 33 10 23 59 -30 228 -160 301 -231 43 -41 56 -60
48 -69 -7 -8 -5 -20 9 -40 10 -16 16 -35 13 -42 -5 -15 -69 -54 -192 -120 -24
-13 -50 -29 -57 -35 -8 -6 -14 -8 -14 -4 0 4 -7 2 -15 -5 -8 -7 -15 -11 -15
-8 0 7 110 320 116 329 3 5 18 2 35 -6 28 -15 37 -11 21 10 -15 20 -121 105
-131 105 -14 0 -14 -17 -1 -25 20 -12 9 -65 -56 -250 -36 -105 -68 -198 -71
-207 -8 -28 23 -32 56 -9 16 12 32 21 35 21 3 0 42 21 88 48 188 108 244 133
273 122 15 -6 30 -8 33 -6 7 4 33 -19 28 -25 -2 -2 9 -17 24 -33 l27 -28 22
30 c20 28 20 62 0 62 -5 0 -9 5 -9 10 0 6 -8 18 -17 28 -10 11 -58 63 -108
117 -49 54 -124 124 -165 157 -41 32 -84 66 -95 76 -41 37 -93 71 -99 65 -3
-4 -6 -1 -6 5 0 6 -12 17 -27 25 -16 8 -73 40 -128 71 -55 32 -107 58 -117 59
-10 1 -18 4 -18 8 0 5 -22 16 -105 50 -53 21 -103 20 -89 -2 3 -5 -2 -9 -11
-9 -9 0 -13 -4 -10 -10 3 -5 1 -10 -4 -10 -24 0 -9 -18 19 -23 16 -4 51 -16
77 -28 27 -12 55 -22 63 -22 8 0 21 -6 28 -14 8 -7 18 -11 23 -8 5 4 9 2 9 -4
0 -6 11 -13 25 -17 14 -3 25 -10 25 -15 0 -5 3 -8 8 -7 12 3 62 -25 62 -34 0
-5 -12 -7 -27 -4 -79 18 -155 -3 -215 -57 -77 -68 -102 -216 -53 -305 14 -25
23 -47 20 -50 -2 -3 -27 5 -54 17 -27 11 -57 21 -65 21 -8 0 -20 9 -26 21 -11
19 -9 20 19 16 16 -3 34 -8 40 -11 5 -4 12 -2 15 2 3 5 -8 18 -23 30 l-29 21
14 67 c8 37 21 90 29 118 8 28 17 65 20 83 3 17 11 49 18 70 10 32 17 38 45
41 39 4 42 20 5 27 -16 4 -47 11 -71 17 -23 6 -44 9 -45 7 -2 -2 -25 -38 -52
-79 -85 -129 -153 -221 -159 -212 -2 4 -7 32 -11 62 -10 100 -36 284 -41 291
-7 11 -144 42 -152 34 -4 -4 -1 -10 7 -13 7 -2 22 -13 33 -24 20 -20 19 -68
-2 -124 -5 -13 -8 -24 -5 -24 2 0 -2 -15 -9 -32 -8 -18 -12 -41 -11 -50 2 -10
-1 -20 -6 -24 -5 -3 -9 -17 -9 -32 -1 -15 -9 -43 -18 -62 -13 -27 -24 -36 -47
-38 -51 -6 -49 -19 4 -32 64 -15 66 -27 4 -23 -78 6 -282 5 -327 -2 -22 -3
-50 -8 -61 -9 -11 -2 -35 -6 -53 -10 -25 -6 -33 -4 -38 8 -4 11 -15 14 -33 11
-14 -2 -32 -1 -40 4 -11 7 -74 215 -96 316 -17 77 -19 72 25 83 35 9 43 7 68
-11 15 -12 34 -31 44 -42 9 -11 19 -17 23 -13 10 9 -18 118 -30 118 -5 0 -32
-7 -60 -14 -198 -56 -252 -71 -296 -81 -12 -2 -23 -6 -25 -7 -1 -2 5 -32 15
-68 15 -55 19 -62 28 -45 6 11 14 34 17 51 8 38 32 61 74 73 32 9 39 2 48 -45
1 -6 9 -36 17 -65 9 -30 18 -65 21 -79 3 -14 14 -56 25 -95 27 -91 27 -102 -8
-119 -16 -9 -28 -23 -27 -32 1 -12 -23 -26 -79 -50 -90 -39 -85 -37 -85 -25 0
5 29 25 64 45 l64 36 -31 59 c-17 33 -34 58 -39 55 -4 -3 -8 -32 -8 -65 l0
-59 -52 -34 c-62 -39 -88 -48 -106 -37 -13 8 -92 137 -92 150 0 13 58 41 84
41 15 0 36 -9 48 -20 40 -37 36 -9 -10 69 -46 80 -66 95 -56 42 8 -36 -9 -67
-46 -86 -40 -21 -43 -20 -65 23 -11 20 -30 54 -42 74 -13 21 -23 40 -23 42 0
7 79 52 110 64 20 8 35 5 65 -9 21 -10 43 -19 47 -19 11 0 -1 44 -13 48 -5 2
-9 9 -9 17 0 37 -27 32 -120 -23 -52 -30 -120 -69 -150 -87 -30 -17 -53 -35
-50 -40 3 -6 10 -8 15 -7 43 15 67 -2 97 -69 7 -16 16 -29 20 -29 5 0 8 -4 8
-10 0 -5 14 -33 31 -62 18 -29 45 -76 61 -105 l29 -52 -21 -21 c-21 -21 -26
-40 -11 -40 6 0 13 5 16 10 4 6 11 8 16 4 12 -7 -18 -44 -36 -44 -6 0 -24 -13
-40 -30 -42 -43 -73 -40 -40 4 20 26 19 45 -2 65 -10 9 -30 30 -45 47 -26 28
-27 31 -13 58 18 33 18 36 6 36 -10 0 -27 -15 -110 -93 -43 -41 -43 -63 1 -33
30 22 32 21 78 -21 59 -55 52 -96 -25 -149 -83 -58 -215 3 -293 135 -84 143
44 283 184 201 56 -32 56 -7 0 54 -31 33 -59 55 -65 51 -6 -3 -9 -11 -6 -16 4
-5 -13 -18 -37 -28 -142 -62 -192 -215 -111 -344 33 -53 57 -75 115 -104 39
-19 60 -24 101 -21 29 3 60 8 70 12 25 12 21 -5 -10 -40 -27 -30 -82 -98 -93
-115 -3 -4 -19 -10 -35 -13 -30 -5 -30 -4 -32 37 -4 94 -71 177 -163 205 -45
14 -126 9 -162 -10 -44 -23 -104 -88 -133 -144 -11 -22 -33 -60 -49 -87 -30
-49 -29 -72 2 -44 10 10 26 17 35 17 20 0 308 -166 324 -187 8 -10 9 -23 3
-38 -12 -32 -1 -38 21 -12 23 27 25 7 4 -33 -9 -17 -13 -30 -9 -30 3 0 -1 -11
-10 -25 -9 -14 -14 -30 -11 -35 3 -6 -1 -10 -9 -10 -9 0 -16 9 -16 20 0 24
-26 67 -55 92 -17 14 -86 35 -180 54 -125 25 -155 41 -155 85 0 76 -38 -1 -55
-113 -7 -46 8 -50 30 -9 17 34 45 38 135 16 30 -8 67 -16 82 -19 16 -4 40 -9
55 -12 42 -8 86 -37 100 -65 28 -55 4 -142 -48 -169 -20 -11 -85 -9 -134 3
-32 9 -158 39 -177 42 -40 8 -60 27 -55 50 2 14 -1 26 -9 29 -8 3 -14 0 -15
-7 -1 -17 -5 -34 -23 -106 -11 -44 -13 -68 -6 -75 7 -7 10 -7 10 0 0 6 9 20
19 31 19 20 22 20 78 7 32 -8 67 -16 78 -18 11 -2 40 -9 65 -16 108 -29 142
-30 179 -3 50 36 54 38 46 12 -4 -12 -9 -37 -10 -53 -2 -17 -4 -31 -5 -31 -2
0 -10 -35 -16 -75 -2 -18 -6 -35 -8 -37 -1 -2 -11 14 -20 34 -27 59 -68 81
-136 74 -28 -2 -71 -46 -84 -85 l-13 -39 -24 42 c-30 53 -81 71 -134 46 -46
-23 -58 -63 -59 -208 -1 -124 6 -160 22 -116 6 14 16 30 23 36 17 14 356 15
381 2 10 -5 18 -18 18 -28 0 -10 6 -24 14 -30 7 -6 16 -39 19 -74 11 -104 19
-151 29 -171 6 -10 12 -30 14 -45 3 -14 6 -33 7 -41 2 -9 6 -20 10 -27 4 -6 8
-23 9 -37 1 -14 5 -26 9 -26 3 0 11 -19 18 -42 7 -24 24 -64 38 -90 14 -25 23
-51 19 -56 -3 -5 -27 -13 -53 -17 -27 -4 -57 -9 -68 -11 -44 -7 -79 -15 -118
-29 -22 -8 -44 -12 -49 -9 -4 3 -8 0 -8 -7 0 -7 -3 -10 -6 -7 -7 8 -114 -34
-160 -63 -19 -11 -36 -20 -37 -18 -15 23 -69 161 -73 187 -3 14 -11 39 -18 56
-11 26 -26 85 -31 121 -1 6 -5 17 -8 25 -6 15 -24 101 -32 150 -21 139 -25
630 -5 630 11 0 10 49 -1 55 -6 4 -4 12 7 19 20 15 31 86 13 86 -6 0 -9 7 -5
15 3 8 1 15 -5 15 -6 0 2 11 18 24 16 14 29 36 31 51 1 14 7 36 13 48 7 12 15
35 19 52 12 49 54 160 63 166 5 3 9 10 9 15 0 5 7 25 15 44 9 19 15 41 14 48
-1 8 9 25 23 38 13 14 39 53 57 87 17 34 38 69 45 78 9 10 10 19 4 25 -6 6 9
29 40 63 28 30 50 61 50 69 0 8 29 43 65 78 36 35 65 67 65 71 1 4 15 19 32
33 47 37 128 120 128 132 0 5 5 6 10 3 6 -3 10 -1 10 4 0 6 6 11 14 11 8 0 30
14 48 30 18 17 38 30 44 30 7 0 14 5 16 10 2 6 13 12 26 13 12 0 22 7 22 14 0
7 6 13 14 13 8 0 16 7 20 15 3 8 11 15 18 15 7 0 24 14 38 30 14 17 34 30 46
30 29 0 120 46 127 64 4 9 16 15 30 14 21 -2 71 16 119 42 10 6 24 10 31 10 7
0 23 7 36 16 13 9 41 18 63 19 21 2 50 11 64 20 14 9 48 18 77 20 29 2 72 9
97 15 63 15 85 19 165 25 39 4 86 11 105 16 19 5 36 5 37 1 5 -12 197 -6 201
7 5 16 22 13 22 -4 0 -10 11 -15 33 -16 54 -3 152 -15 152 -19 0 -12 109 -13
113 -1 5 14 32 2 32 -14 0 -10 28 -22 75 -30 6 -1 23 -7 38 -13 36 -15 38 -15
62 6 51 44 50 49 -10 67 -31 8 -60 13 -65 10 -6 -3 -10 -1 -10 5 0 8 -9 10
-26 6 -18 -5 -32 -2 -45 10 -11 10 -34 18 -53 20 -18 1 -42 4 -52 8 -10 3 -39
8 -64 11 -25 3 -76 9 -115 14 -64 8 -379 13 -387 6z m496 -232 c3 -16 7 -50
11 -78 5 -53 12 -111 21 -185 3 -25 7 -58 9 -75 1 -16 3 -33 4 -37 1 -10 31
-10 31 0 0 6 111 166 138 197 5 6 17 24 28 40 31 48 64 88 69 83 4 -4 -69
-303 -80 -330 -5 -12 -18 -18 -41 -18 -19 0 -34 -5 -34 -11 0 -13 -79 -4 -105
13 -6 3 -27 9 -47 13 -21 4 -35 12 -32 18 2 7 -10 20 -27 29 -28 17 -30 22
-28 65 1 27 6 57 10 68 10 28 52 207 52 223 0 23 15 12 21 -15z m700 -163 c75
-46 80 -168 13 -294 -55 -104 -137 -135 -217 -82 -76 50 -73 184 7 314 47 76
132 103 197 62z m-2540 -656 c62 -13 145 -75 173 -128 28 -54 8 -147 -38 -180
-25 -17 -34 -14 -114 34 -34 20 -68 39 -75 43 -8 4 -33 18 -55 32 -22 14 -55
32 -73 41 -44 22 -48 36 -22 79 24 39 60 67 105 82 29 10 40 10 99 -3z m3236
-227 c0 -7 -4 -17 -9 -22 -5 -6 -33 -55 -62 -110 -29 -55 -72 -136 -95 -180
-42 -78 -64 -103 -64 -71 0 30 -26 97 -41 107 -6 3 -11 36 -12 74 -4 79 4 90
93 132 202 96 190 91 190 70z m-3016 -267 c14 -290 17 -346 22 -560 12 -449
12 -442 -8 -448 -10 -2 -19 -12 -19 -21 -4 -60 -3 -79 5 -98 5 -13 18 -23 30
-23 20 -1 20 -1 2 -15 -10 -8 -16 -21 -13 -29 4 -10 -5 -23 -23 -36 -20 -14
-27 -26 -23 -41 4 -14 9 -17 16 -10 6 6 14 11 18 11 12 0 17 -39 5 -48 -17
-12 -69 -15 -62 -4 6 10 -47 145 -65 168 -5 6 -10 23 -11 38 -1 14 -5 26 -8
26 -3 0 -7 11 -8 26 -1 14 -7 34 -12 45 -6 11 -8 23 -5 28 3 5 1 11 -4 13 -5
1 -10 21 -12 43 -1 22 -5 44 -8 49 -6 12 -8 30 -16 141 -10 153 -12 186 -6
190 8 4 6 59 -3 73 -4 6 -2 21 4 33 6 11 9 26 7 34 -3 7 -2 16 3 21 5 5 11 35
14 66 3 32 10 67 17 79 6 12 13 36 15 53 9 65 11 72 24 96 8 14 13 29 12 34
-2 4 3 15 10 23 6 8 14 25 15 36 2 12 8 24 13 25 6 2 10 15 10 28 0 13 4 24 8
24 4 0 16 14 26 31 10 17 19 29 21 27 2 -2 6 -59 9 -128z m-347 -419 c6 -1 25
-12 41 -26 23 -19 29 -33 30 -68 1 -29 -3 -49 -13 -57 -20 -17 -193 -20 -199
-4 -8 20 4 96 18 116 19 27 54 44 86 42 14 -2 30 -3 37 -3z m3012 -42 c38 -36
62 -96 62 -159 1 -56 -6 -73 -47 -129 -8 -11 -97 -6 -114 6 -48 34 -72 148
-45 216 36 91 90 116 144 66z m-3216 9 c23 -12 43 -64 39 -102 l-4 -31 -81 1
c-45 1 -86 2 -90 3 -4 1 -7 22 -5 48 3 63 33 96 86 92 20 -1 45 -7 55 -11z
m3381 -199 c0 -61 -13 -186 -24 -233 -5 -22 -8 -42 -8 -45 0 -3 -1 -9 -2 -13
-1 -5 -4 -12 -5 -18 -1 -5 -3 -11 -5 -12 -1 -2 -3 -12 -5 -23 -5 -31 -38 -139
-44 -145 -3 -3 -8 -14 -9 -25 -2 -10 -10 -28 -18 -39 -14 -20 -14 -20 -14 5 0
22 -10 30 -67 57 -72 34 -293 114 -293 106 0 -2 -16 2 -35 10 -19 8 -35 13
-35 11 0 -1 -21 3 -46 11 -25 7 -49 13 -52 12 -4 -1 -26 4 -50 11 -45 13 -48
25 -7 35 14 4 59 22 100 42 67 32 75 39 85 72 5 20 10 45 10 55 0 9 6 17 13
18 6 0 21 2 32 5 47 9 72 7 103 -10 46 -24 68 -28 132 -26 77 2 92 4 117 18
26 14 60 75 65 115 4 27 35 59 52 54 5 -2 10 -23 10 -48z m-2560 -380 c3 -3
-11 -17 -32 -30 -27 -18 -55 -26 -93 -28 -30 -2 -69 -4 -87 -5 -26 -2 -33 1
-38 20 -9 35 3 44 57 43 27 -1 51 0 54 3 7 6 132 4 139 -3z m2866 -564 c-11
-20 -20 -39 -20 -44 0 -12 -64 -110 -72 -110 -12 -1 -128 112 -128 125 0 11
45 34 80 40 8 1 35 7 60 12 25 5 57 10 72 11 l28 1 -20 -35z"/>
<path d="M1267 1298 c-16 -6 -35 -25 -47 -47 -18 -36 -18 -38 0 -78 12 -28 15
-44 8 -51 -7 -7 -2 -14 13 -22 22 -10 22 -10 6 3 -12 10 -15 17 -7 22 6 4 12
5 14 4 1 -2 14 -21 29 -41 33 -45 34 -82 3 -113 -21 -21 -29 -23 -58 -15 -18
5 -41 20 -50 32 -10 13 -23 28 -28 35 -12 15 -14 49 -5 83 4 14 3 20 -2 14 -4
-6 -28 -21 -53 -32 -25 -11 -38 -21 -28 -21 9 -1 37 -25 63 -53 26 -29 61 -61
78 -71 65 -40 155 3 161 76 4 38 -4 56 -55 123 -46 59 -50 96 -15 119 53 35
122 -19 113 -87 -3 -21 -1 -41 4 -44 5 -3 9 2 9 10 0 9 4 16 8 16 5 0 17 6 27
14 18 13 17 16 -32 65 -69 68 -99 80 -156 59z"/>
<path d="M3578 1302 c-1 -5 -25 -23 -51 -41 -50 -34 -87 -82 -87 -114 0 -47
41 -92 92 -101 13 -2 22 -9 20 -16 -1 -6 2 -9 8 -5 6 3 8 10 5 15 -3 5 5 12
17 16 13 4 25 10 28 14 3 4 24 17 48 29 37 19 48 21 78 11 23 -8 36 -20 40
-36 8 -32 -13 -82 -37 -89 -10 -4 -19 -10 -19 -15 0 -12 -49 -18 -54 -6 -3 7
-5 7 -5 -1 -1 -9 -8 -10 -27 -3 -37 15 -37 15 -17 -37 8 -23 10 -30 12 -44 0
-6 9 -2 19 10 9 12 39 36 66 54 67 44 91 78 91 132 0 34 -6 48 -28 69 -15 14
-39 29 -53 32 -27 7 -87 -15 -137 -49 -55 -37 -120 -13 -111 41 9 50 65 91 93
68 12 -9 13 -8 7 3 -6 9 -1 8 17 -3 24 -16 25 -16 29 8 3 14 1 23 -3 20 -5 -3
-13 6 -19 20 -10 27 -16 32 -22 18z"/>
<path d="M3610 1301 c0 -6 4 -13 10 -16 6 -3 7 1 4 9 -7 18 -14 21 -14 7z"/>
<path d="M3499 1183 c-13 -16 -12 -17 4 -4 9 7 17 15 17 17 0 8 -8 3 -21 -13z"/>
<path d="M1197 1159 c4 -13 8 -18 11 -10 2 7 -1 18 -6 23 -8 8 -9 4 -5 -13z"/>
<path d="M3332 1138 l-34 -21 29 -12 c16 -7 46 -38 68 -71 22 -32 43 -61 47
-64 3 -3 8 -12 10 -20 2 -8 12 -23 23 -33 20 -18 20 -18 -5 -11 -14 4 -35 13
-47 21 -12 8 -59 34 -105 58 -68 35 -83 46 -81 64 3 21 2 21 -25 4 -15 -10
-29 -20 -32 -24 -3 -3 -14 -11 -25 -17 -19 -10 -19 -11 5 -20 16 -6 55 -54
104 -125 69 -101 78 -119 73 -147 l-7 -31 46 33 46 33 -30 7 c-18 5 -42 25
-61 50 -92 124 -111 153 -101 156 6 2 18 -4 25 -14 8 -11 15 -15 15 -11 0 5
56 -21 124 -57 106 -56 126 -63 141 -52 15 11 16 16 5 37 -7 13 -16 26 -19 29
-4 3 -37 49 -75 103 -44 64 -68 108 -68 127 -1 36 -3 36 -46 8z"/>
<path d="M3393 1145 c-3 -9 -3 -18 -1 -21 3 -3 8 4 11 16 6 23 -1 27 -10 5z"/>
<path d="M1522 1116 c-104 -37 -167 -202 -109 -287 44 -65 125 -91 187 -59 92
47 141 214 87 294 -32 46 -111 71 -165 52z m106 -30 c12 -4 22 -15 22 -26 0
-10 4 -21 9 -24 28 -18 -31 -176 -85 -229 -24 -24 -34 -28 -63 -23 -79 12 -96
85 -46 193 46 101 92 132 163 109z"/>
<path d="M1475 949 c-4 -6 -5 -12 -2 -15 2 -3 7 2 10 11 7 17 1 20 -8 4z"/>
<path d="M1450 879 c0 -5 5 -7 10 -4 6 3 10 8 10 11 0 2 -4 4 -10 4 -5 0 -10
-5 -10 -11z"/>
<path d="M3820 1099 c0 -5 5 -7 10 -4 6 3 10 8 10 11 0 2 -4 4 -10 4 -5 0 -10
-5 -10 -11z"/>
<path d="M1154 1085 c-3 -8 -4 -20 -2 -27 3 -7 7 -1 10 15 6 29 1 36 -8 12z"/>
<path d="M1051 1047 c2 -2 18 -11 34 -21 l30 -17 -24 20 c-13 12 -28 21 -34
21 -6 0 -8 -1 -6 -3z"/>
<path d="M1750 1020 c0 -3 5 -11 11 -17 10 -10 -15 -129 -41 -198 -5 -14 -12
-40 -15 -58 -3 -18 -16 -41 -30 -52 l-25 -19 117 -34 c65 -18 126 -36 136 -39
16 -5 18 -1 12 33 -11 64 -12 66 -39 39 -27 -27 -56 -31 -105 -14 -22 8 -30
16 -27 28 3 9 8 30 12 46 4 17 9 35 13 40 3 6 7 16 8 23 5 19 8 33 23 91 8 31
26 65 41 81 l27 26 -59 15 c-33 9 -59 13 -59 9z"/>
<path d="M3347 989 c7 -7 15 -10 18 -7 3 3 -2 9 -12 12 -14 6 -15 5 -6 -5z"/>
<path d="M1120 980 c0 -5 5 -10 11 -10 5 0 7 5 4 10 -3 6 -8 10 -11 10 -2 0
-4 -4 -4 -10z"/>
<path d="M2978 952 c-38 -18 -75 -70 -82 -114 -12 -74 40 -182 104 -216 104
-56 220 12 220 128 0 43 -32 125 -62 160 -43 50 -126 69 -180 42z m86 -18 c22
-8 72 -91 91 -151 23 -71 14 -118 -28 -143 -56 -34 -100 -11 -140 73 -45 93
-52 144 -26 194 15 29 65 42 103 27z"/>
<path d="M2976 787 c3 -10 9 -15 12 -12 3 3 0 11 -7 18 -10 9 -11 8 -5 -6z"/>
<path d="M3020 690 c6 -11 13 -20 16 -20 2 0 0 9 -6 20 -6 11 -13 20 -16 20
-2 0 0 -9 6 -20z"/>
<path d="M1140 956 c0 -2 7 -7 16 -10 8 -3 12 -2 9 4 -6 10 -25 14 -25 6z"/>
<path d="M2011 934 c17 -21 17 -37 1 -129 -21 -115 -24 -156 -12 -185 30 -71
186 -88 211 -22 11 28 26 99 34 162 12 87 23 120 41 120 25 0 15 19 -13 25
-58 12 -63 13 -63 7 0 -4 7 -15 15 -25 7 -11 12 -27 10 -37 -2 -9 -6 -34 -9
-54 -3 -20 -9 -52 -12 -72 -3 -20 -7 -46 -10 -58 -14 -76 -53 -103 -114 -78
-42 17 -49 27 -45 61 6 45 17 125 20 146 1 11 6 38 9 60 7 41 31 69 49 58 6
-3 7 -1 3 5 -3 6 -20 13 -36 16 -104 20 -97 20 -79 0z"/>
<path d="M3161 933 c7 -12 15 -20 18 -17 3 2 -3 12 -13 22 -17 16 -18 16 -5
-5z"/>
<path d="M1295 920 c-3 -5 -1 -10 4 -10 6 0 11 5 11 10 0 6 -2 10 -4 10 -3 0
-8 -4 -11 -10z"/>
<path d="M2752 898 c-38 -8 -51 -28 -17 -28 8 0 18 -20 24 -52 44 -213 48
-244 40 -260 -13 -24 -11 -27 14 -22 12 3 35 7 51 9 37 5 59 25 29 25 -26 0
-33 10 -39 53 -3 18 -11 64 -20 102 -8 39 -15 80 -17 92 -2 12 -6 25 -10 29
-3 4 0 19 9 35 17 33 13 34 -64 17z"/>
<path d="M2364 854 c15 -33 22 -41 24 -28 2 11 11 25 20 32 20 15 68 16 78 0
5 -7 3 -8 -7 -3 -11 7 -12 6 -3 -6 5 -8 9 -23 8 -34 -1 -11 -4 -71 -8 -134 -5
-86 -10 -119 -23 -133 -15 -17 -15 -18 13 -19 16 0 41 -2 55 -4 17 -2 26 1 26
10 0 8 -5 13 -10 12 -6 -1 -10 19 -9 48 4 143 10 257 15 262 4 3 18 7 33 9 20
2 30 -4 42 -27 10 -16 20 -29 23 -29 4 0 39 64 39 73 0 1 -17 2 -38 3 -20 0
-96 3 -168 7 l-132 8 22 -47z"/>
<path d="M3659 883 c-13 -16 -12 -17 4 -4 9 7 17 15 17 17 0 8 -8 3 -21 -13z"/>
<path d="M2091 854 c0 -11 3 -14 6 -6 3 7 2 16 -1 19 -3 4 -6 -2 -5 -13z"/>
<path d="M3573 845 c0 -8 4 -12 9 -9 5 3 6 10 3 15 -9 13 -12 11 -12 -6z"/>
<path d="M2428 843 c7 -3 16 -2 19 1 4 3 -2 6 -13 5 -11 0 -14 -3 -6 -6z"/>
<path d="M2568 843 c7 -3 16 -2 19 1 4 3 -2 6 -13 5 -11 0 -14 -3 -6 -6z"/>
<path d="M2675 840 c-3 -5 -1 -10 4 -10 6 0 11 5 11 10 0 6 -2 10 -4 10 -3 0
-8 -4 -11 -10z"/>
<path d="M2086 813 c-6 -14 -5 -15 5 -6 7 7 10 15 7 18 -3 3 -9 -2 -12 -12z"/>
<path d="M2271 814 c0 -11 3 -14 6 -6 3 7 2 16 -1 19 -3 4 -6 -2 -5 -13z"/>
<path d="M2831 805 c1 -19 18 -51 18 -35 0 8 -4 22 -9 30 -5 8 -9 11 -9 5z"/>
<path d="M2551 784 c0 -11 3 -14 6 -6 3 7 2 16 -1 19 -3 4 -6 -2 -5 -13z"/>
<path d="M1614 754 c-18 -14 -18 -14 6 -3 31 14 36 19 24 19 -6 0 -19 -7 -30
-16z"/>
<path d="M1467 749 c7 -7 15 -10 18 -7 3 3 -2 9 -12 12 -14 6 -15 5 -6 -5z"/>
<path d="M3241 744 c0 -11 3 -14 6 -6 3 7 2 16 -1 19 -3 4 -6 -2 -5 -13z"/>
<path d="M3231 689 c-1 -8 -10 -25 -21 -37 -12 -12 -17 -22 -12 -22 14 0 44
49 38 63 -2 7 -5 6 -5 -4z"/>
<path d="M1926 657 c3 -10 9 -15 12 -12 3 3 0 11 -7 18 -10 9 -11 8 -5 -6z"/>
<path d="M2542 630 c0 -14 2 -19 5 -12 2 6 2 18 0 25 -3 6 -5 1 -5 -13z"/>
<path d="M1708 633 c7 -3 16 -2 19 1 4 3 -2 6 -13 5 -11 0 -14 -3 -6 -6z"/>
<path d="M1920 580 c-9 -6 -10 -10 -3 -10 6 0 15 5 18 10 8 12 4 12 -15 0z"/>
<path d="M2915 540 c3 -5 8 -10 11 -10 2 0 4 5 4 10 0 6 -5 10 -11 10 -5 0 -7
-4 -4 -10z"/>
<path d="M2566 517 c3 -10 9 -15 12 -12 3 3 0 11 -7 18 -10 9 -11 8 -5 -6z"/>
<path d="M2488 503 c7 -3 16 -2 19 1 4 3 -2 6 -13 5 -11 0 -14 -3 -6 -6z"/>
</g>
</svg>
